<?xml version="1.0" encoding="iso-8859-1"?>
<!-- Generator: Adobe Illustrator 19.0.0, SVG Export Plug-In . SVG Version: 6.00 Build 0)  -->
<svg version="1.1" id="Layer_1" xmlns="http://www.w3.org/2000/svg" xmlns:xlink="http://www.w3.org/1999/xlink" x="0px" y="0px"
	 viewBox="0 0 489.782 489.782" style="enable-background:new 0 0 489.782 489.782;" xml:space="preserve">
<g>
	<rect x="432.008" y="436.205" style="fill:#FCC062;" width="0.927" height="38.264"/>
	<polygon style="fill:#FCC062;" points="446.865,97.138 432.468,39.551 432.871,111.133 	"/>
	<path style="fill:#FCC062;" d="M432.008,130.078v260.21h0.927V130.07C432.626,130.092,432.317,130.093,432.008,130.078z"/>
	<rect x="417.077" y="436.205" style="fill:#FDD089;" width="14.931" height="38.264"/>
	<path style="fill:#FDD089;" d="M426.971,127.855l-9.894-9.894v272.328h14.931v-260.21
		C430.176,129.989,428.37,129.254,426.971,127.855z"/>
	<path style="fill:#FBB03B;" d="M432.935,130.07v260.219h14.753V117.961l-9.894,9.894
		C436.44,129.209,434.705,129.942,432.935,130.07z"/>
	<rect x="432.935" y="436.205" style="fill:#FBB03B;" width="14.753" height="38.264"/>
	<rect x="432.465" y="405.594" style="fill:#71D1D1;" width="15.222" height="15.306"/>
	<rect x="417.077" y="405.594" style="fill:#A0E0E0;" width="15.388" height="15.306"/>
	<path style="fill:#FDD089;" d="M103.315,45.916V15.305H57.398v15.306h15.305c4.227,0,7.653,3.426,7.653,7.653
		c0,4.226-3.426,7.653-7.653,7.653H57.398v30.611h15.305c4.227,0,7.653,3.426,7.653,7.653c0,4.226-3.426,7.653-7.653,7.653H57.398
		v30.611h15.305c4.227,0,7.653,3.426,7.653,7.653c0,4.227-3.426,7.653-7.653,7.653H57.398v30.611h15.305
		c4.227,0,7.653,3.426,7.653,7.653c0,4.226-3.426,7.653-7.653,7.653H57.398v30.611h15.305c4.227,0,7.653,3.426,7.653,7.653
		s-3.426,7.653-7.653,7.653H57.398v30.611h15.305c4.227,0,7.653,3.426,7.653,7.653s-3.426,7.653-7.653,7.653H57.398v30.611h15.305
		c4.227,0,7.653,3.426,7.653,7.653c0,4.226-3.426,7.653-7.653,7.653H57.398v30.611h15.305c4.227,0,7.653,3.426,7.653,7.653
		s-3.426,7.653-7.653,7.653H57.398v30.611h15.305c4.227,0,7.653,3.426,7.653,7.653c0,4.226-3.426,7.653-7.653,7.653H57.398v30.611
		h15.305c4.227,0,7.653,3.426,7.653,7.653s-3.426,7.653-7.653,7.653H57.398v15.306h45.917V76.527c0-4.057,3.159-7.368,7.15-7.627
		V53.544C106.474,53.284,103.315,49.973,103.315,45.916z"/>
	<path style="fill:#71D1D1;" d="M319.127,84.335c3.49,0.711,6.117,3.798,6.117,7.498c0,3.7-2.626,6.787-6.117,7.498v30.92
		c3.49,0.711,6.117,3.798,6.117,7.498s-2.626,6.787-6.117,7.498v329.222h36.728V15.305h-36.728V84.335z"/>
	<path style="fill:#A0E0E0;" d="M317.591,84.18c0.526,0,1.04,0.053,1.536,0.155v-69.03h-81.419V84.18H317.591z"/>
	<path style="fill:#A0E0E0;" d="M317.591,145.402h-38.263c-4.227,0-7.653-3.426-7.653-7.653s3.426-7.653,7.653-7.653h38.263
		c0.526,0,1.04,0.053,1.536,0.155v-30.92c-0.496,0.101-1.01,0.155-1.536,0.155h-79.883v30.611h11.008
		c4.227,0,7.653,3.426,7.653,7.653s-3.426,7.653-7.653,7.653h-11.008v329.068h81.419V145.247
		C318.631,145.348,318.117,145.402,317.591,145.402z"/>
	<path style="fill:#D0F0F0;" d="M156.884,145.402c-4.227,0-7.653-3.426-7.653-7.653s3.426-7.653,7.653-7.653h80.824v-30.61h-80.824
		c-4.227,0-7.653-3.426-7.653-7.653s3.426-7.653,7.653-7.653h80.824V15.305H118.62v30.611c0,4.226-3.426,7.653-7.653,7.653
		c-0.17,0-0.335-0.014-0.502-0.025V68.9c0.167-0.011,0.333-0.025,0.502-0.025c4.227,0,7.653,3.426,7.653,7.653V474.47h119.088
		V145.402H156.884z M156.843,431.558v-6.587V303.853v-38.582v-57.204h15.313v57.204v38.582v121.118v6.587H156.843z"/>
	<polygon style="fill:#FDD089;" points="432.871,111.133 432.468,39.551 432.382,39.206 417.899,97.138 432.382,111.621 	"/>
	<path d="M363.508,0H49.746c-4.227,0-7.653,3.426-7.653,7.653v22.958H26.788c-4.227,0-7.653,3.426-7.653,7.653
		c0,4.226,3.426,7.653,7.653,7.653h15.305v30.611H26.788c-4.227,0-7.653,3.426-7.653,7.653c0,4.226,3.426,7.653,7.653,7.653h15.305
		v30.611H26.788c-4.227,0-7.653,3.426-7.653,7.653c0,4.227,3.426,7.653,7.653,7.653h15.305v30.611H26.788
		c-4.227,0-7.653,3.426-7.653,7.653c0,4.226,3.426,7.653,7.653,7.653h15.305v30.611H26.788c-4.227,0-7.653,3.426-7.653,7.653
		s3.426,7.653,7.653,7.653h15.305v30.611H26.788c-4.227,0-7.653,3.426-7.653,7.653s3.426,7.653,7.653,7.653h15.305v30.611H26.788
		c-4.227,0-7.653,3.426-7.653,7.653c0,4.226,3.426,7.653,7.653,7.653h15.305v30.611H26.788c-4.227,0-7.653,3.426-7.653,7.653
		s3.426,7.653,7.653,7.653h15.305v30.611H26.788c-4.227,0-7.653,3.426-7.653,7.653c0,4.226,3.426,7.653,7.653,7.653h15.305v30.611
		H26.788c-4.227,0-7.653,3.426-7.653,7.653s3.426,7.653,7.653,7.653h15.305v22.439v0.52c0,4.227,3.426,7.653,7.653,7.653h313.762
		c4.227,0,7.653-3.426,7.653-7.653V7.653C371.16,3.426,367.734,0,363.508,0z M355.855,474.469h-36.728h-81.419H118.62V76.527
		c0-4.227-3.426-7.653-7.653-7.653c-0.17,0-0.335,0.014-0.502,0.025c-3.991,0.26-7.15,3.57-7.15,7.627v397.942H57.398v-15.306
		h15.305c4.227,0,7.653-3.426,7.653-7.653s-3.426-7.653-7.653-7.653H57.398v-30.611h15.305c4.227,0,7.653-3.426,7.653-7.653
		s-3.426-7.653-7.653-7.653H57.398v-30.611h15.305c4.227,0,7.653-3.426,7.653-7.653c0-4.226-3.426-7.653-7.653-7.653H57.398v-30.611
		h15.305c4.227,0,7.653-3.426,7.653-7.653s-3.426-7.653-7.653-7.653H57.398v-30.611h15.305c4.227,0,7.653-3.426,7.653-7.653
		s-3.426-7.653-7.653-7.653H57.398v-30.611h15.305c4.227,0,7.653-3.426,7.653-7.653c0-4.226-3.426-7.653-7.653-7.653H57.398V183.66
		h15.305c4.227,0,7.653-3.426,7.653-7.653s-3.426-7.653-7.653-7.653H57.398v-30.611h15.305c4.227,0,7.653-3.426,7.653-7.653
		c0-4.226-3.426-7.653-7.653-7.653H57.398V91.832h15.305c4.227,0,7.653-3.426,7.653-7.653s-3.426-7.653-7.653-7.653H57.398v-30.61
		h15.305c4.227,0,7.653-3.426,7.653-7.653s-3.426-7.653-7.653-7.653H57.398V15.305h45.917v30.611c0,4.057,3.159,7.368,7.15,7.627
		c0.167,0.011,0.333,0.025,0.502,0.025c4.227,0,7.653-3.426,7.653-7.653v-30.61h119.088h81.419h36.728V474.469z"/>
	<path d="M237.708,84.18h-80.824c-4.227,0-7.653,3.426-7.653,7.653c0,4.226,3.426,7.653,7.653,7.653h80.824h79.883
		c0.526,0,1.04-0.053,1.536-0.155c3.49-0.711,6.117-3.798,6.117-7.498c0-3.7-2.626-6.787-6.117-7.498
		c-0.496-0.101-1.01-0.155-1.536-0.155H237.708z"/>
	<path d="M149.231,137.749c0,4.227,3.426,7.653,7.653,7.653h80.824h11.008c4.227,0,7.653-3.426,7.653-7.653
		s-3.426-7.653-7.653-7.653h-11.008h-80.824C152.658,130.096,149.231,133.522,149.231,137.749z"/>
	<path d="M279.328,130.096c-4.227,0-7.653,3.426-7.653,7.653s3.426,7.653,7.653,7.653h38.263c0.526,0,1.04-0.053,1.536-0.154
		c3.49-0.711,6.117-3.798,6.117-7.498s-2.626-6.787-6.117-7.498c-0.496-0.101-1.01-0.155-1.536-0.155L279.328,130.096
		L279.328,130.096z"/>
	<path d="M462.993,420.9V99.486c0-0.031-0.007-0.06-0.007-0.091c-0.004-0.343-0.026-0.687-0.077-1.033
		c-0.005-0.033-0.014-0.066-0.02-0.099c-0.034-0.211-0.072-0.422-0.125-0.633L439.806,5.797C438.955,2.39,435.894,0,432.382,0
		s-6.573,2.39-7.424,5.797L402,97.63c-0.053,0.211-0.09,0.422-0.125,0.633c-0.005,0.033-0.014,0.065-0.019,0.099
		c-0.052,0.346-0.073,0.691-0.077,1.033c0,0.031-0.007,0.06-0.007,0.091V420.9c-4.227,0-7.653,3.426-7.653,7.653
		s3.426,7.653,7.653,7.653v45.917c0,4.227,3.426,7.653,7.653,7.653h45.916c4.226,0,7.653-3.426,7.653-7.653v-45.917
		c4.227,0,7.653-3.426,7.653-7.653S467.219,420.9,462.993,420.9z M447.687,474.469h-14.753h-0.927h-14.931v-38.264h14.931h0.927
		h14.753V474.469z M432.382,39.206l0.086,0.345l14.397,57.587l-13.994,13.995l-0.488,0.488L417.9,97.138L432.382,39.206z
		 M417.077,420.9v-15.306h15.388h15.222V420.9h-15.222H417.077z M447.687,390.289h-14.753h-0.927h-14.931V117.961l9.894,9.894
		c1.399,1.399,3.206,2.134,5.037,2.223c0.309,0.015,0.618,0.014,0.927-0.009c1.77-0.127,3.505-0.861,4.859-2.215l9.894-9.894
		L447.687,390.289L447.687,390.289z"/>
	<polygon style="fill:#FFFFFF;" points="172.156,303.853 172.156,265.271 172.156,208.067 156.843,208.067 156.843,265.271 
		156.843,303.853 156.843,424.972 156.843,431.558 172.156,431.558 172.156,424.972 	"/>
</g>
<g>
</g>
<g>
</g>
<g>
</g>
<g>
</g>
<g>
</g>
<g>
</g>
<g>
</g>
<g>
</g>
<g>
</g>
<g>
</g>
<g>
</g>
<g>
</g>
<g>
</g>
<g>
</g>
<g>
</g>
</svg>
